<?xml version="1.0" encoding="UTF-8"?>
<!DOCTYPE score-partwise PUBLIC "-//Recordare//DTD MusicXML 4.0 Partwise//EN" "http://www.musicxml.org/dtds/partwise.dtd">
<score-partwise version="4.0">
  <work>
    <work-title>Als ich fortging</work-title>
    </work>
  <identification>
    <encoding>
      <software>MuseScore 4.3.0</software>
      <encoding-date>2024-05-30</encoding-date>
      <supports element="accidental" type="yes"/>
      <supports element="beam" type="yes"/>
      <supports element="print" attribute="new-page" type="yes" value="yes"/>
      <supports element="print" attribute="new-system" type="yes" value="yes"/>
      <supports element="stem" type="yes"/>
      </encoding>
    <source>http://musescore.com/user/23804156/scores/4538436</source>
    </identification>
  <defaults>
    <scaling>
      <millimeters>7.05556</millimeters>
      <tenths>40</tenths>
      </scaling>
    <page-layout>
      <page-height>1683.36</page-height>
      <page-width>1190.88</page-width>
      <page-margins type="even">
        <left-margin>56.6929</left-margin>
        <right-margin>56.6929</right-margin>
        <top-margin>56.6929</top-margin>
        <bottom-margin>113.386</bottom-margin>
        </page-margins>
      <page-margins type="odd">
        <left-margin>56.6929</left-margin>
        <right-margin>56.6929</right-margin>
        <top-margin>56.6929</top-margin>
        <bottom-margin>113.386</bottom-margin>
        </page-margins>
      </page-layout>
    <appearance>
      <line-width type="light barline">1.8</line-width>
      <line-width type="heavy barline">5.5</line-width>
      <line-width type="beam">5</line-width>
      <line-width type="bracket">4.5</line-width>
      <line-width type="dashes">1</line-width>
      <line-width type="enclosure">1</line-width>
      <line-width type="ending">1.1</line-width>
      <line-width type="extend">1</line-width>
      <line-width type="leger">1.6</line-width>
      <line-width type="pedal">1.1</line-width>
      <line-width type="octave shift">1.1</line-width>
      <line-width type="slur middle">2.1</line-width>
      <line-width type="slur tip">0.5</line-width>
      <line-width type="staff">1.1</line-width>
      <line-width type="stem">1</line-width>
      <line-width type="tie middle">2.1</line-width>
      <line-width type="tie tip">0.5</line-width>
      <line-width type="tuplet bracket">1</line-width>
      <line-width type="wedge">1.2</line-width>
      <note-size type="cue">70</note-size>
      <note-size type="grace">70</note-size>
      <note-size type="grace-cue">49</note-size>
      </appearance>
    <music-font font-family="Leland"/>
    <word-font font-family="FreeSerif" font-size="10"/>
    <lyric-font font-family="FreeSerif" font-size="9"/>
    </defaults>
  <credit page="1">
    <credit-type>title</credit-type>
    <credit-words default-x="595.44" default-y="1626.67" justify="center" valign="top" font-family="Edwin" font-size="24">Als ich fortging</credit-words>
    </credit>
  <credit page="1">
    <credit-type>composer</credit-type>
    <credit-words default-x="1134.19" default-y="1558.87" justify="right" valign="top" font-family="Edwin" font-size="12">Karussell</credit-words>
    </credit>
  <part-list>
    <score-part id="P1">
      <part-name>Klavier</part-name>
      <part-abbreviation>Klav.</part-abbreviation>
      <score-instrument id="P1-I1">
        <instrument-name>Klavier</instrument-name>
        <instrument-sound>keyboard.piano.grand</instrument-sound>
        </score-instrument>
      <midi-device id="P1-I1" port="1"></midi-device>
      <midi-instrument id="P1-I1">
        <midi-channel>1</midi-channel>
        <midi-program>1</midi-program>
        <volume>78.7402</volume>
        <pan>0</pan>
        </midi-instrument>
      </score-part>
    </part-list>
  <part id="P1">
    <measure number="1" width="342.91">
      <print>
        <system-layout>
          <system-margins>
            <left-margin>50.00</left-margin>
            <right-margin>0.00</right-margin>
            </system-margins>
          <top-system-distance>170.00</top-system-distance>
          </system-layout>
        </print>
      <attributes>
        <divisions>2</divisions>
        <key>
          <fifths>1</fifths>
          </key>
        <time>
          <beats>4</beats>
          <beat-type>4</beat-type>
          </time>
        <clef>
          <sign>G</sign>
          <line>2</line>
          </clef>
        </attributes>
      <harmony print-frame="no">
        <root>
          <root-step>E</root-step>
          </root>
        <kind text="m">minor</kind>
        </harmony>
      <note default-x="93.47" default-y="-40.00">
        <pitch>
          <step>E</step>
          <octave>4</octave>
          </pitch>
        <duration>1</duration>
        <voice>1</voice>
        <type>eighth</type>
        <stem>up</stem>
        <beam number="1">begin</beam>
        <lyric number="1" default-x="6.50" default-y="-42.40" relative-y="-30.00">
          <syllabic>single</syllabic>
          <text>Als</text>
          </lyric>
        <lyric number="2" default-x="6.50" default-y="-64.00" relative-y="-30.00">
          <syllabic>single</syllabic>
          <text>Als</text>
          </lyric>
        </note>
      <note default-x="118.39" default-y="-35.00">
        <pitch>
          <step>F</step>
          <alter>1</alter>
          <octave>4</octave>
          </pitch>
        <duration>1</duration>
        <voice>1</voice>
        <type>eighth</type>
        <stem>up</stem>
        <beam number="1">end</beam>
        </note>
      <note default-x="143.31" default-y="-30.00">
        <pitch>
          <step>G</step>
          <octave>4</octave>
          </pitch>
        <duration>1</duration>
        <voice>1</voice>
        <type>eighth</type>
        <stem>up</stem>
        <beam number="1">begin</beam>
        <lyric number="1" default-x="6.50" default-y="-42.40" relative-y="-30.00">
          <syllabic>begin</syllabic>
          <text>fort</text>
          </lyric>
        <lyric number="2" default-x="6.50" default-y="-64.00" relative-y="-30.00">
          <syllabic>begin</syllabic>
          <text>fort</text>
          </lyric>
        </note>
      <note default-x="178.56" default-y="-25.00">
        <pitch>
          <step>A</step>
          <octave>4</octave>
          </pitch>
        <duration>1</duration>
        <voice>1</voice>
        <type>eighth</type>
        <stem>up</stem>
        <beam number="1">end</beam>
        <lyric number="1" default-x="6.50" default-y="-42.40" relative-y="-30.00">
          <syllabic>end</syllabic>
          <text>ging</text>
          </lyric>
        <lyric number="2" default-x="6.50" default-y="-64.00" relative-y="-30.00">
          <syllabic>end</syllabic>
          <text>ging</text>
          </lyric>
        </note>
      <note default-x="210.86" default-y="-20.00">
        <pitch>
          <step>B</step>
          <octave>4</octave>
          </pitch>
        <duration>1</duration>
        <voice>1</voice>
        <type>eighth</type>
        <stem>up</stem>
        <beam number="1">begin</beam>
        <lyric number="1" default-x="6.50" default-y="-42.40" relative-y="-30.00">
          <syllabic>single</syllabic>
          <text>war</text>
          </lyric>
        <lyric number="2" default-x="6.50" default-y="-64.00" relative-y="-30.00">
          <syllabic>single</syllabic>
          <text>war</text>
          </lyric>
        </note>
      <note default-x="239.16" default-y="-25.00">
        <pitch>
          <step>A</step>
          <octave>4</octave>
          </pitch>
        <duration>1</duration>
        <voice>1</voice>
        <type>eighth</type>
        <stem>up</stem>
        <beam number="1">end</beam>
        <lyric number="1" default-x="6.50" default-y="-42.40" relative-y="-30.00">
          <syllabic>single</syllabic>
          <text>die</text>
          </lyric>
        <lyric number="2" default-x="6.50" default-y="-64.00" relative-y="-30.00">
          <syllabic>single</syllabic>
          <text>der</text>
          </lyric>
        </note>
      <harmony print-frame="no">
        <root>
          <root-step>A</root-step>
          </root>
        <kind text="m">minor</kind>
        </harmony>
      <note default-x="271.46" default-y="-20.00">
        <pitch>
          <step>B</step>
          <octave>4</octave>
          </pitch>
        <duration>1</duration>
        <voice>1</voice>
        <type>eighth</type>
        <stem>down</stem>
        <beam number="1">begin</beam>
        <lyric number="1" default-x="6.50" default-y="-42.40" relative-y="-30.00">
          <syllabic>begin</syllabic>
          <text>Stras</text>
          </lyric>
        <lyric number="2" default-x="6.50" default-y="-64.00" relative-y="-30.00">
          <syllabic>begin</syllabic>
          <text>As</text>
          </lyric>
        </note>
      <note default-x="313.11" default-y="-15.00">
        <pitch>
          <step>C</step>
          <octave>5</octave>
          </pitch>
        <duration>1</duration>
        <voice>1</voice>
        <type>eighth</type>
        <stem>down</stem>
        <beam number="1">end</beam>
        <lyric number="1" default-x="6.50" default-y="-42.40" relative-y="-30.00">
          <syllabic>end</syllabic>
          <text>se</text>
          </lyric>
        <lyric number="2" default-x="6.50" default-y="-64.00" relative-y="-30.00">
          <syllabic>end</syllabic>
          <text>phalt</text>
          </lyric>
        </note>
      </measure>
    <measure number="2" width="145.63">
      <harmony print-frame="no">
        <root>
          <root-step>A</root-step>
          </root>
        <kind text="m">minor</kind>
        </harmony>
      <note default-x="13.00" default-y="-25.00">
        <pitch>
          <step>A</step>
          <octave>4</octave>
          </pitch>
        <duration>4</duration>
        <voice>1</voice>
        <type>half</type>
        <stem>up</stem>
        <lyric number="1" default-x="6.50" default-y="-42.40" relative-y="-30.00">
          <syllabic>single</syllabic>
          <text>steil</text>
          </lyric>
        <lyric number="2" default-x="6.50" default-y="-64.00" relative-y="-30.00">
          <syllabic>single</syllabic>
          <text>heiß</text>
          </lyric>
        </note>
      <harmony print-frame="no">
        <root>
          <root-step>D</root-step>
          </root>
        <kind>major</kind>
        </harmony>
      <note default-x="69.07" default-y="-5.00">
        <pitch>
          <step>E</step>
          <octave>5</octave>
          </pitch>
        <duration>2</duration>
        <voice>1</voice>
        <type>quarter</type>
        <stem>down</stem>
        <lyric number="1" default-x="6.50" default-y="-42.40" relative-y="-30.00">
          <syllabic>single</syllabic>
          <text>kehr</text>
          </lyric>
        <lyric number="2" default-x="6.50" default-y="-64.00" relative-y="-30.00">
          <syllabic>single</syllabic>
          <text>kehr</text>
          </lyric>
        </note>
      <note default-x="106.45" default-y="-10.00">
        <pitch>
          <step>D</step>
          <octave>5</octave>
          </pitch>
        <duration>2</duration>
        <voice>1</voice>
        <type>quarter</type>
        <stem>down</stem>
        <lyric number="1" default-x="6.50" default-y="-42.40" relative-y="-30.00">
          <syllabic>begin</syllabic>
          <text>wie</text>
          </lyric>
        <lyric number="2" default-x="6.50" default-y="-64.00" relative-y="-30.00">
          <syllabic>begin</syllabic>
          <text>wie</text>
          </lyric>
        </note>
      </measure>
    <measure number="3" width="123.26">
      <harmony print-frame="no">
        <root>
          <root-step>D</root-step>
          </root>
        <kind>major</kind>
        </harmony>
      <note default-x="13.00" default-y="-15.00">
        <pitch>
          <step>C</step>
          <octave>5</octave>
          </pitch>
        <duration>2</duration>
        <voice>1</voice>
        <type>quarter</type>
        <stem>down</stem>
        <lyric number="1" default-x="6.50" default-y="-42.40" relative-y="-30.00">
          <syllabic>end</syllabic>
          <text>der</text>
          </lyric>
        <lyric number="2" default-x="6.50" default-y="-64.00" relative-y="-30.00">
          <syllabic>end</syllabic>
          <text>der</text>
          </lyric>
        </note>
      <harmony print-frame="no">
        <root>
          <root-step>G</root-step>
          </root>
        <kind>major</kind>
        </harmony>
      <note default-x="50.38" default-y="-20.00">
        <pitch>
          <step>B</step>
          <octave>4</octave>
          </pitch>
        <duration>6</duration>
        <voice>1</voice>
        <type>half</type>
        <dot/>
        <stem>down</stem>
        <lyric number="1" default-x="6.50" default-y="-42.40" relative-y="-30.00">
          <syllabic>single</syllabic>
          <text>um</text>
          </lyric>
        <lyric number="2" default-x="6.50" default-y="-64.00" relative-y="-30.00">
          <syllabic>single</syllabic>
          <text>um</text>
          </lyric>
        </note>
      </measure>
    <measure number="4" width="248.05">
      <harmony print-frame="no">
        <root>
          <root-step>C</root-step>
          </root>
        <kind>major</kind>
        </harmony>
      <note default-x="18.95" default-y="-40.00">
        <pitch>
          <step>E</step>
          <octave>4</octave>
          </pitch>
        <duration>1</duration>
        <voice>1</voice>
        <type>eighth</type>
        <stem>up</stem>
        <beam number="1">begin</beam>
        <lyric number="1" default-x="6.50" default-y="-42.40" relative-y="-30.00">
          <syllabic>single</syllabic>
          <text>Nimm</text>
          </lyric>
        <lyric number="2" default-x="6.50" default-y="-64.00" relative-y="-30.00">
          <syllabic>single</syllabic>
          <text>Red</text>
          </lyric>
        </note>
      <note default-x="55.85" default-y="-35.00">
        <pitch>
          <step>F</step>
          <alter>1</alter>
          <octave>4</octave>
          </pitch>
        <duration>1</duration>
        <voice>1</voice>
        <type>eighth</type>
        <stem>up</stem>
        <beam number="1">end</beam>
        <lyric number="1" default-x="6.50" default-y="-42.40" relative-y="-30.00">
          <syllabic>single</syllabic>
          <text>an</text>
          </lyric>
        <lyric number="2" default-x="6.50" default-y="-64.00" relative-y="-30.00">
          <syllabic>single</syllabic>
          <text>ihr</text>
          </lyric>
        </note>
      <note default-x="80.77" default-y="-30.00">
        <pitch>
          <step>G</step>
          <octave>4</octave>
          </pitch>
        <duration>1</duration>
        <voice>1</voice>
        <type>eighth</type>
        <stem>up</stem>
        <beam number="1">begin</beam>
        <lyric number="1" default-x="6.50" default-y="-42.40" relative-y="-30.00">
          <syllabic>begin</syllabic>
          <text>ihr</text>
          </lyric>
        <lyric number="2" default-x="6.50" default-y="-64.00" relative-y="-30.00">
          <syllabic>single</syllabic>
          <text>aus</text>
          </lyric>
        </note>
      <note default-x="108.62" default-y="-20.00">
        <pitch>
          <step>B</step>
          <octave>4</octave>
          </pitch>
        <duration>1</duration>
        <voice>1</voice>
        <type>eighth</type>
        <stem>up</stem>
        <beam number="1">end</beam>
        <lyric number="1" default-x="6.50" default-y="-42.40" relative-y="-30.00">
          <syllabic>end</syllabic>
          <text>em</text>
          </lyric>
        <lyric number="2" default-x="6.50" default-y="-64.00" relative-y="-30.00">
          <syllabic>single</syllabic>
          <text>um</text>
          </lyric>
        </note>
      <note default-x="141.32" default-y="-25.00">
        <pitch>
          <step>A</step>
          <octave>4</octave>
          </pitch>
        <duration>1</duration>
        <voice>1</voice>
        <type>eighth</type>
        <stem>up</stem>
        <beam number="1">begin</beam>
        <lyric number="1" default-x="6.50" default-y="-42.40" relative-y="-30.00">
          <syllabic>begin</syllabic>
          <text>Kum</text>
          </lyric>
        <lyric number="2" default-x="6.50" default-y="-64.00" relative-y="-30.00">
          <syllabic>begin</syllabic>
          <text>je</text>
          </lyric>
        </note>
      <note default-x="179.57" default-y="-30.00">
        <pitch>
          <step>G</step>
          <octave>4</octave>
          </pitch>
        <duration>1</duration>
        <voice>1</voice>
        <type>eighth</type>
        <stem>up</stem>
        <beam number="1">end</beam>
        <lyric number="1" default-x="6.50" default-y="-42.40" relative-y="-30.00">
          <syllabic>end</syllabic>
          <text>mer</text>
          </lyric>
        <lyric number="2" default-x="6.50" default-y="-64.00" relative-y="-30.00">
          <syllabic>end</syllabic>
          <text>den</text>
          </lyric>
        </note>
      <harmony print-frame="no">
        <root>
          <root-step>D</root-step>
          </root>
        <kind>major</kind>
        </harmony>
      <note default-x="208.87" default-y="-35.00">
        <pitch>
          <step>F</step>
          <alter>1</alter>
          <octave>4</octave>
          </pitch>
        <duration>2</duration>
        <tie type="start"/>
        <voice>1</voice>
        <type>quarter</type>
        <stem>up</stem>
        <notations>
          <tied type="start"/>
          </notations>
        <lyric number="1" default-x="6.50" default-y="-42.40" relative-y="-30.00">
          <syllabic>single</syllabic>
          <text>teil</text>
          </lyric>
        </note>
      </measure>
    <measure number="5" width="167.65">
      <harmony print-frame="no">
        <root>
          <root-step>D</root-step>
          </root>
        <kind>major</kind>
        </harmony>
      <note default-x="13.00" default-y="-35.00">
        <pitch>
          <step>F</step>
          <alter>1</alter>
          <octave>4</octave>
          </pitch>
        <duration>2</duration>
        <tie type="stop"/>
        <voice>1</voice>
        <type>quarter</type>
        <stem>up</stem>
        <notations>
          <tied type="stop"/>
          </notations>
        </note>
      <note default-x="50.38" default-y="-30.00">
        <pitch>
          <step>G</step>
          <octave>4</octave>
          </pitch>
        <duration>1</duration>
        <voice>1</voice>
        <type>eighth</type>
        <stem>up</stem>
        <beam number="1">begin</beam>
        <lyric number="1" default-x="6.50" default-y="-42.40" relative-y="-30.00">
          <syllabic>single</syllabic>
          <text>mach</text>
          </lyric>
        </note>
      <note default-x="83.08" default-y="-25.00">
        <pitch>
          <step>A</step>
          <octave>4</octave>
          </pitch>
        <duration>1</duration>
        <voice>1</voice>
        <type>eighth</type>
        <stem>up</stem>
        <beam number="1">end</beam>
        <lyric number="1" default-x="6.50" default-y="-42.40" relative-y="-30.00">
          <syllabic>single</syllabic>
          <text>sie</text>
          </lyric>
        </note>
      <harmony print-frame="no">
        <root>
          <root-step>E</root-step>
          </root>
        <kind text="m">minor</kind>
        </harmony>
      <note default-x="109.78" default-y="-30.00">
        <pitch>
          <step>G</step>
          <octave>4</octave>
          </pitch>
        <duration>4</duration>
        <tie type="start"/>
        <voice>1</voice>
        <type>half</type>
        <stem>up</stem>
        <notations>
          <tied type="start"/>
          </notations>
        <lyric number="1" default-x="6.50" default-y="-42.40" relative-y="-30.00">
          <syllabic>single</syllabic>
          <text>heil</text>
          </lyric>
        </note>
      </measure>
    <measure number="6" width="224.59">
      <print new-system="yes">
        <system-layout>
          <system-margins>
            <left-margin>-0.00</left-margin>
            <right-margin>0.00</right-margin>
            </system-margins>
          <system-distance>270.32</system-distance>
          </system-layout>
        </print>
      <harmony print-frame="no">
        <root>
          <root-step>E</root-step>
          </root>
        <kind text="m">minor</kind>
        </harmony>
      <note default-x="77.86" default-y="-30.00">
        <pitch>
          <step>G</step>
          <octave>4</octave>
          </pitch>
        <duration>2</duration>
        <tie type="stop"/>
        <voice>1</voice>
        <type>quarter</type>
        <stem>up</stem>
        <notations>
          <tied type="stop"/>
          </notations>
        </note>
      <note default-x="119.26" default-y="-20.00">
        <rest/>
        <duration>4</duration>
        <voice>1</voice>
        <type>half</type>
        </note>
      <note default-x="181.38" default-y="-20.00">
        <rest/>
        <duration>2</duration>
        <voice>1</voice>
        <type>quarter</type>
        </note>
      <barline location="right">
        <ending number="1" type="stop"/>
        </barline>
      </measure>
    <measure number="7" width="176.98">
      <barline location="left">
        <ending number="2" type="start" default-y="70.60">2</ending>
        </barline>
      <harmony print-frame="no">
        <root>
          <root-step>D</root-step>
          </root>
        <kind>major</kind>
        </harmony>
      <note default-x="13.75" default-y="-35.00">
        <pitch>
          <step>F</step>
          <alter>1</alter>
          <octave>4</octave>
          </pitch>
        <duration>4</duration>
        <voice>1</voice>
        <type>half</type>
        <stem>up</stem>
        <lyric number="1" default-x="6.50" default-y="-47.17" relative-y="-30.00">
          <syllabic>single</syllabic>
          <text>Preis</text>
          </lyric>
        </note>
      <note default-x="75.86" default-y="-30.00">
        <pitch>
          <step>G</step>
          <octave>4</octave>
          </pitch>
        <duration>1</duration>
        <voice>1</voice>
        <type>eighth</type>
        <stem>up</stem>
        <beam number="1">begin</beam>
        <lyric number="1" default-x="6.50" default-y="-47.17" relative-y="-30.00">
          <syllabic>single</syllabic>
          <text>was</text>
          </lyric>
        </note>
      <note default-x="103.47" default-y="-35.00">
        <pitch>
          <step>F</step>
          <alter>1</alter>
          <octave>4</octave>
          </pitch>
        <duration>1</duration>
        <voice>1</voice>
        <type>eighth</type>
        <stem>up</stem>
        <beam number="1">end</beam>
        <lyric number="1" default-x="6.50" default-y="-47.17" relative-y="-30.00">
          <syllabic>single</syllabic>
          <text>sie</text>
          </lyric>
        </note>
      <harmony print-frame="no">
        <root>
          <root-step>E</root-step>
          </root>
        <kind text="m">minor</kind>
        </harmony>
      <note default-x="133.77" default-y="-40.00">
        <pitch>
          <step>E</step>
          <octave>4</octave>
          </pitch>
        <duration>2</duration>
        <tie type="start"/>
        <voice>1</voice>
        <type>quarter</type>
        <stem>up</stem>
        <notations>
          <tied type="start"/>
          </notations>
        <lyric number="1" default-x="6.50" default-y="-47.17" relative-y="-30.00">
          <syllabic>single</syllabic>
          <text>weiß</text>
          </lyric>
        </note>
      </measure>
    <measure number="8" width="139.02">
      <harmony print-frame="no">
        <root>
          <root-step>E</root-step>
          </root>
        <kind text="m">minor</kind>
        </harmony>
      <note default-x="13.00" default-y="-40.00">
        <pitch>
          <step>E</step>
          <octave>4</octave>
          </pitch>
        <duration>4</duration>
        <tie type="stop"/>
        <voice>1</voice>
        <type>half</type>
        <stem>up</stem>
        <notations>
          <tied type="stop"/>
          </notations>
        </note>
      <note default-x="75.11" default-y="-20.00">
        <rest/>
        <duration>4</duration>
        <voice>1</voice>
        <type>half</type>
        </note>
      </measure>
    <measure number="9" width="185.57">
      <harmony print-frame="no">
        <root>
          <root-step>E</root-step>
          </root>
        <kind text="m">minor</kind>
        </harmony>
      <note default-x="13.00" default-y="-20.00">
        <rest/>
        <duration>2</duration>
        <voice>1</voice>
        <type>quarter</type>
        </note>
      <harmony print-frame="no">
        <root>
          <root-step>C</root-step>
          </root>
        <kind>major</kind>
        </harmony>
      <note default-x="54.41" default-y="-5.00">
        <pitch>
          <step>E</step>
          <octave>5</octave>
          </pitch>
        <duration>4</duration>
        <voice>1</voice>
        <type>half</type>
        <stem>down</stem>
        <lyric number="1" default-x="6.50" default-y="-47.17" relative-y="-30.00">
          <syllabic>single</syllabic>
          <text>Nichts</text>
          </lyric>
        <lyric number="2" default-x="6.50" default-y="-68.77" relative-y="-30.00">
          <syllabic>begin</syllabic>
          <text>Feu</text>
          </lyric>
        </note>
      <note default-x="116.52" default-y="-10.00">
        <pitch>
          <step>D</step>
          <octave>5</octave>
          </pitch>
        <duration>1</duration>
        <voice>1</voice>
        <type>eighth</type>
        <stem>down</stem>
        <beam number="1">begin</beam>
        <lyric number="1" default-x="6.50" default-y="-47.17" relative-y="-30.00">
          <syllabic>single</syllabic>
          <text>ist</text>
          </lyric>
        <lyric number="2" default-x="6.50" default-y="-68.77" relative-y="-30.00">
          <syllabic>end</syllabic>
          <text>er</text>
          </lyric>
        </note>
      <note default-x="151.82" default-y="-15.00">
        <pitch>
          <step>C</step>
          <octave>5</octave>
          </pitch>
        <duration>1</duration>
        <voice>1</voice>
        <type>eighth</type>
        <stem>down</stem>
        <beam number="1">end</beam>
        <lyric number="1" default-x="6.50" default-y="-47.17" relative-y="-30.00">
          <syllabic>begin</syllabic>
          <text>un</text>
          </lyric>
        <lyric number="2" default-x="6.50" default-y="-68.77" relative-y="-30.00">
          <syllabic>single</syllabic>
          <text>brennt</text>
          </lyric>
        </note>
      </measure>
    <measure number="10" width="191.61">
      <harmony print-frame="no">
        <root>
          <root-step>G</root-step>
          </root>
        <kind>major</kind>
        </harmony>
      <note default-x="13.00" default-y="-10.00">
        <pitch>
          <step>D</step>
          <octave>5</octave>
          </pitch>
        <duration>2</duration>
        <voice>1</voice>
        <type>quarter</type>
        <stem>down</stem>
        <lyric number="1" default-x="6.50" default-y="-47.17" relative-y="-30.00">
          <syllabic>middle</syllabic>
          <text>end</text>
          </lyric>
        <lyric number="2" default-x="6.50" default-y="-68.77" relative-y="-30.00">
          <syllabic>begin</syllabic>
          <text>nie</text>
          </lyric>
        </note>
      <note default-x="54.41" default-y="-20.00">
        <pitch>
          <step>B</step>
          <octave>4</octave>
          </pitch>
        <duration>3</duration>
        <voice>1</voice>
        <type>quarter</type>
        <dot/>
        <stem>down</stem>
        <lyric number="1" default-x="6.50" default-y="-47.17" relative-y="-30.00">
          <syllabic>end</syllabic>
          <text>lich</text>
          </lyric>
        <lyric number="2" default-x="6.50" default-y="-68.77" relative-y="-30.00">
          <syllabic>end</syllabic>
          <text>der</text>
          </lyric>
        </note>
      <note default-x="106.90" default-y="-10.00">
        <pitch>
          <step>D</step>
          <octave>5</octave>
          </pitch>
        <duration>1</duration>
        <voice>1</voice>
        <type>eighth</type>
        <stem>down</stem>
        <lyric number="1" default-x="6.50" default-y="-47.17" relative-y="-30.00">
          <syllabic>single</syllabic>
          <text>so</text>
          </lyric>
        <lyric number="2" default-x="6.50" default-y="-68.77" relative-y="-30.00">
          <syllabic>single</syllabic>
          <text>wenn's</text>
          </lyric>
        </note>
      <harmony print-frame="no">
        <root>
          <root-step>A</root-step>
          </root>
        <kind text="m">minor</kind>
        </harmony>
      <note default-x="148.40" default-y="-15.00">
        <pitch>
          <step>C</step>
          <octave>5</octave>
          </pitch>
        <duration>2</duration>
        <voice>1</voice>
        <type>quarter</type>
        <stem>down</stem>
        <lyric number="1" default-x="6.50" default-y="-47.17" relative-y="-30.00">
          <syllabic>single</syllabic>
          <text>sieh</text>
          </lyric>
        <lyric number="2" default-x="6.50" default-y="-68.77" relative-y="-30.00">
          <syllabic>begin</syllabic>
          <text>kei</text>
          </lyric>
        </note>
      </measure>
    <measure number="11" width="159.73">
      <harmony print-frame="no">
        <root>
          <root-step>A</root-step>
          </root>
        <kind text="m">minor</kind>
        </harmony>
      <note default-x="13.00" default-y="-20.00">
        <pitch>
          <step>B</step>
          <octave>4</octave>
          </pitch>
        <duration>2</duration>
        <voice>1</voice>
        <type>quarter</type>
        <stem>down</stem>
        <lyric number="1" default-x="6.50" default-y="-47.17" relative-y="-30.00">
          <syllabic>single</syllabic>
          <text>das</text>
          </lyric>
        <lyric number="2" default-x="6.50" default-y="-68.77" relative-y="-30.00">
          <syllabic>end</syllabic>
          <text>ner</text>
          </lyric>
        </note>
      <note default-x="54.41" default-y="-25.00">
        <pitch>
          <step>A</step>
          <octave>4</octave>
          </pitch>
        <duration>2</duration>
        <voice>1</voice>
        <type>quarter</type>
        <stem>up</stem>
        <lyric number="1" default-x="6.50" default-y="-47.17" relative-y="-30.00">
          <syllabic>single</syllabic>
          <text>doch</text>
          </lyric>
        <lyric number="2" default-x="6.50" default-y="-68.77" relative-y="-30.00">
          <syllabic>single</syllabic>
          <text>mehr</text>
          </lyric>
        </note>
      <harmony print-frame="no">
        <root>
          <root-step>E</root-step>
          </root>
        <kind text="m">minor</kind>
        </harmony>
      <note default-x="95.82" default-y="-30.00">
        <pitch>
          <step>G</step>
          <octave>4</octave>
          </pitch>
        <duration>4</duration>
        <voice>1</voice>
        <type>half</type>
        <stem>up</stem>
        <lyric number="1" default-x="6.50" default-y="-47.17" relative-y="-30.00">
          <syllabic>single</syllabic>
          <text>ein</text>
          </lyric>
        <lyric number="2" default-x="6.50" default-y="-68.77" relative-y="-30.00">
          <syllabic>single</syllabic>
          <text>nährt</text>
          </lyric>
        </note>
      </measure>
    <measure number="12" width="331.48">
      <print new-system="yes">
        <system-layout>
          <system-margins>
            <left-margin>-0.00</left-margin>
            <right-margin>0.00</right-margin>
            </system-margins>
          <system-distance>270.32</system-distance>
          </system-layout>
        </print>
      <harmony print-frame="no">
        <root>
          <root-step>E</root-step>
          </root>
        <kind text="m">minor</kind>
        </harmony>
      <note default-x="77.86" default-y="-20.00">
        <rest/>
        <duration>1</duration>
        <voice>1</voice>
        <type>eighth</type>
        </note>
      <note default-x="104.53" default-y="-40.00">
        <pitch>
          <step>E</step>
          <octave>4</octave>
          </pitch>
        <duration>1</duration>
        <voice>1</voice>
        <type>eighth</type>
        <stem>up</stem>
        <lyric number="1" default-x="6.50" default-y="-40.00" relative-y="-30.00">
          <syllabic>single</syllabic>
          <text>Ich</text>
          </lyric>
        </note>
      <harmony print-frame="no">
        <root>
          <root-step>C</root-step>
          </root>
        <kind>major</kind>
        </harmony>
      <note default-x="138.63" default-y="-40.00">
        <pitch>
          <step>E</step>
          <octave>4</octave>
          </pitch>
        <duration>1</duration>
        <voice>1</voice>
        <type>eighth</type>
        <stem>up</stem>
        <beam number="1">begin</beam>
        <lyric number="1" default-x="6.50" default-y="-40.00" relative-y="-30.00">
          <syllabic>single</syllabic>
          <text>weiß</text>
          </lyric>
        <lyric number="2" default-x="6.50" default-y="-61.60" relative-y="-30.00">
          <syllabic>single</syllabic>
          <text>Kenn</text>
          </lyric>
        </note>
      <note default-x="172.13" default-y="-35.00">
        <pitch>
          <step>F</step>
          <alter>1</alter>
          <octave>4</octave>
          </pitch>
        <duration>1</duration>
        <voice>1</voice>
        <type>eighth</type>
        <stem>up</stem>
        <beam number="1">end</beam>
        <lyric number="1" default-x="6.50" default-y="-40.00" relative-y="-30.00">
          <syllabic>single</syllabic>
          <text>Du</text>
          </lyric>
        <lyric number="2" default-x="6.50" default-y="-61.60" relative-y="-30.00">
          <syllabic>single</syllabic>
          <text>ja</text>
          </lyric>
        </note>
      <note default-x="206.03" default-y="-30.00">
        <pitch>
          <step>G</step>
          <octave>4</octave>
          </pitch>
        <duration>1</duration>
        <voice>1</voice>
        <type>eighth</type>
        <stem>up</stem>
        <beam number="1">begin</beam>
        <lyric number="1" default-x="6.50" default-y="-40.00" relative-y="-30.00">
          <syllabic>single</syllabic>
          <text>willst</text>
          </lyric>
        <lyric number="2" default-x="6.50" default-y="-61.60" relative-y="-30.00">
          <syllabic>begin</syllabic>
          <text>sel</text>
          </lyric>
        </note>
      <note default-x="240.93" default-y="-20.00">
        <pitch>
          <step>B</step>
          <octave>4</octave>
          </pitch>
        <duration>1</duration>
        <voice>1</voice>
        <type>eighth</type>
        <stem>up</stem>
        <beam number="1">end</beam>
        <lyric number="1" default-x="6.50" default-y="-40.00" relative-y="-30.00">
          <syllabic>begin</syllabic>
          <text>un</text>
          </lyric>
        <lyric number="2" default-x="6.50" default-y="-61.60" relative-y="-30.00">
          <syllabic>end</syllabic>
          <text>ber</text>
          </lyric>
        </note>
      <note default-x="269.43" default-y="-25.00">
        <pitch>
          <step>A</step>
          <octave>4</octave>
          </pitch>
        <duration>1</duration>
        <voice>1</voice>
        <type>eighth</type>
        <stem>up</stem>
        <beam number="1">begin</beam>
        <lyric number="1" default-x="6.50" default-y="-40.00" relative-y="-30.00">
          <syllabic>middle</syllabic>
          <text>end</text>
          </lyric>
        <lyric number="2" default-x="6.50" default-y="-61.60" relative-y="-30.00">
          <syllabic>single</syllabic>
          <text>was</text>
          </lyric>
        </note>
      <note default-x="301.68" default-y="-30.00">
        <pitch>
          <step>G</step>
          <octave>4</octave>
          </pitch>
        <duration>1</duration>
        <voice>1</voice>
        <type>eighth</type>
        <stem>up</stem>
        <beam number="1">end</beam>
        <lyric number="1" default-x="6.50" default-y="-40.00" relative-y="-30.00">
          <syllabic>end</syllabic>
          <text>lich</text>
          </lyric>
        <lyric number="2" default-x="6.50" default-y="-61.60" relative-y="-30.00">
          <syllabic>single</syllabic>
          <text>Dir</text>
          </lyric>
        </note>
      </measure>
    <measure number="13" width="196.43">
      <barline location="left">
        <ending number="1" type="start" default-y="70.60">1</ending>
        </barline>
      <harmony print-frame="no">
        <root>
          <root-step>D</root-step>
          </root>
        <kind>major</kind>
        </harmony>
      <note default-x="13.00" default-y="-35.00">
        <pitch>
          <step>F</step>
          <alter>1</alter>
          <octave>4</octave>
          </pitch>
        <duration>4</duration>
        <voice>1</voice>
        <type>half</type>
        <stem>up</stem>
        <lyric number="1" default-x="6.50" default-y="-40.00" relative-y="-30.00">
          <syllabic>single</syllabic>
          <text>sein</text>
          </lyric>
        </note>
      <note default-x="73.02" default-y="-30.00">
        <pitch>
          <step>G</step>
          <octave>4</octave>
          </pitch>
        <duration>1</duration>
        <voice>1</voice>
        <type>eighth</type>
        <stem>up</stem>
        <beam number="1">begin</beam>
        <lyric number="1" default-x="6.50" default-y="-40.00" relative-y="-30.00">
          <syllabic>single</syllabic>
          <text>schwach</text>
          </lyric>
        </note>
      <note default-x="119.92" default-y="-25.00">
        <pitch>
          <step>A</step>
          <octave>4</octave>
          </pitch>
        <duration>1</duration>
        <voice>1</voice>
        <type>eighth</type>
        <stem>up</stem>
        <beam number="1">end</beam>
        <lyric number="1" default-x="6.50" default-y="-40.00" relative-y="-30.00">
          <syllabic>single</syllabic>
          <text>und</text>
          </lyric>
        </note>
      <harmony print-frame="no">
        <root>
          <root-step>E</root-step>
          </root>
        <kind text="m">minor</kind>
        </harmony>
      <note default-x="154.62" default-y="-30.00">
        <pitch>
          <step>G</step>
          <octave>4</octave>
          </pitch>
        <duration>2</duration>
        <tie type="start"/>
        <voice>1</voice>
        <type>quarter</type>
        <stem>up</stem>
        <notations>
          <tied type="start"/>
          </notations>
        <lyric number="1" default-x="6.50" default-y="-40.00" relative-y="-30.00">
          <syllabic>single</syllabic>
          <text>klein</text>
          </lyric>
        </note>
      </measure>
    <measure number="14" width="134.83">
      <harmony print-frame="no">
        <root>
          <root-step>E</root-step>
          </root>
        <kind text="m">minor</kind>
        </harmony>
      <note default-x="13.00" default-y="-30.00">
        <pitch>
          <step>G</step>
          <octave>4</octave>
          </pitch>
        <duration>4</duration>
        <tie type="stop"/>
        <voice>1</voice>
        <type>half</type>
        <stem>up</stem>
        <notations>
          <tied type="stop"/>
          </notations>
        </note>
      <note default-x="73.02" default-y="-20.00">
        <rest/>
        <duration>4</duration>
        <voice>1</voice>
        <type>half</type>
        </note>
      </measure>
    <measure number="15" width="169.50">
      <harmony print-frame="no">
        <root>
          <root-step>E</root-step>
          </root>
        <kind text="m">minor</kind>
        </harmony>
      <note default-x="13.00" default-y="-20.00">
        <rest/>
        <duration>2</duration>
        <voice>1</voice>
        <type>quarter</type>
        </note>
      <harmony print-frame="no">
        <root>
          <root-step>D</root-step>
          </root>
        <kind>major</kind>
        </harmony>
      <note default-x="53.01" default-y="-35.00">
        <pitch>
          <step>F</step>
          <alter>1</alter>
          <octave>4</octave>
          </pitch>
        <duration>4</duration>
        <voice>1</voice>
        <type>half</type>
        <stem>up</stem>
        <lyric number="1" default-x="6.50" default-y="-40.00" relative-y="-30.00">
          <syllabic>single</syllabic>
          <text>heut</text>
          </lyric>
        </note>
      <note default-x="113.03" default-y="-30.00">
        <pitch>
          <step>G</step>
          <octave>4</octave>
          </pitch>
        <duration>1</duration>
        <voice>1</voice>
        <type>eighth</type>
        <stem>up</stem>
        <beam number="1">begin</beam>
        <lyric number="1" default-x="6.50" default-y="-40.00" relative-y="-30.00">
          <syllabic>begin</syllabic>
          <text>wi</text>
          </lyric>
        </note>
      <note default-x="139.70" default-y="-35.00">
        <pitch>
          <step>F</step>
          <alter>1</alter>
          <octave>4</octave>
          </pitch>
        <duration>1</duration>
        <voice>1</voice>
        <type>eighth</type>
        <stem>up</stem>
        <beam number="1">end</beam>
        <lyric number="1" default-x="6.50" default-y="-40.00" relative-y="-30.00">
          <syllabic>end</syllabic>
          <text>der</text>
          </lyric>
        </note>
      </measure>
    <measure number="16" width="131.24">
      <harmony print-frame="no">
        <root>
          <root-step>E</root-step>
          </root>
        <kind text="m">minor</kind>
        </harmony>
      <note default-x="13.35" default-y="-40.00">
        <pitch>
          <step>E</step>
          <octave>4</octave>
          </pitch>
        <duration>6</duration>
        <voice>1</voice>
        <type>half</type>
        <dot/>
        <stem>up</stem>
        <lyric number="1" default-x="6.50" default-y="-40.00" relative-y="-30.00">
          <syllabic>single</syllabic>
          <text>fährt</text>
          </lyric>
        </note>
      <note default-x="89.43" default-y="-20.00">
        <rest/>
        <duration>2</duration>
        <voice>1</voice>
        <type>quarter</type>
        </note>
      </measure>
    <measure number="17" width="114.02">
      <harmony print-frame="no">
        <root>
          <root-step>E</root-step>
          </root>
        <kind text="m">minor</kind>
        </harmony>
      <note default-x="45.01" default-y="-10.00">
        <rest measure="yes"/>
        <duration>8</duration>
        <voice>1</voice>
        </note>
      <barline location="right">
        <bar-style>light-heavy</bar-style>
        <ending number="2" type="stop"/>
        </barline>
      </measure>
    </part>
  </score-partwise>
